<svg width="100" height="100" viewBox="0 0 100 100" fill="none" xmlns="http://www.w3.org/2000/svg">
<rect width="100" height="100" fill="white"/>
<rect x="24.6946" y="62.1867" width="21.6908" height="9.64035" rx="1.20504" fill="#FF9900"/>
<path d="M54.0738 13C54.97 13 55.5532 13.9439 55.1517 14.7452L32.5878 59.7766H24.695C23.3639 59.7766 22.2849 60.8557 22.2849 62.1867V71.8271C22.2849 73.1581 23.3639 74.2372 24.695 74.2372H25.341L20.0654 84.766C19.8611 85.1736 19.4434 85.4309 18.9875 85.4309H8.55986C7.66628 85.4307 7.08419 84.4913 7.48073 83.6904L42.1504 13.6708C42.3537 13.2602 42.7726 13 43.2308 13H54.0738Z" fill="#6466FA"/>
<rect x="39.155" y="50.1363" width="21.6908" height="9.64035" rx="1.20504" fill="#FF1F5B"/>
<rect x="52.4104" y="62.1867" width="21.6908" height="9.64035" rx="1.20504" fill="#00BC7C"/>
<path d="M56.5805 17.3089C57.0261 16.4289 58.2822 16.4273 58.7294 17.3065L92.5094 83.7145C92.9128 84.5076 92.3469 85.4492 91.4574 85.4656L80.2931 85.6704C79.8243 85.679 79.3923 85.4151 79.1869 84.9937L73.943 74.2366H74.1019C75.4327 74.2363 76.512 73.1574 76.512 71.8265V62.1862C76.5117 60.8556 75.4325 59.7764 74.1019 59.7761H66.8928L51.5485 28.3025C51.3833 27.9635 51.3864 27.5669 51.5568 27.2305L56.5805 17.3089Z" fill="#6466FA"/>
</svg>
